#!OML:ASF H:\MichaelJackson\Top Level 1\Subject 1\Session 1\male.ASF
:FULLY-SPECIFIED
:DEGREES
963
root 3.03957 16.4348 41.8648 -14.6474 -2.0863 3.42786
lowerback 20.1572 0.850819 -5.90344
upperback 6.13919 -0.150069 -1.43011
thorax -4.59032 -0.0743632 1.86075
lowerneck -7.19754 -1.52334 3.47526
upperneck 0.996357 -2.31668 -0.501343
head 1.48278 -1.14959 -0.824845
rclavicle -2.18663e-015 -1.03368e-014
rhumerus -51.6146 0.935349 -63.7409
rradius 89.3042
rwrist -1.37816
rhand -7.58815 -28.2331
rfingers 7.12502
rthumb 18.3051 302.608
lclavicle -2.18663e-015 -1.03368e-014
lhumerus -27.175 -0.910427 52.6138
lradius 47.7276
lwrist 16.1245
lhand -12.795 8.87639
lfingers 7.12502
lthumb 13.2908 38.4326
rfemur -90.843 -16.9525 39.4913
rtibia 55.442
rfoot -7.72427 -0.190542
rtoes -58.5687
lfemur -9.34652 15.6115 -23.3753
ltibia 40.3022
lfoot -14.5405 -11.4832
ltoes 20.8654
964
root 3.00705 16.4346 41.9206 -15.2462 -1.47767 3.99114
lowerback 20.7112 0.757864 -6.48669
upperback 6.3468 -0.428264 -1.5453
thorax -4.62305 -0.213258 2.13438
lowerneck -7.18758 -1.50401 3.33124
upperneck 0.541782 -2.27278 -0.594476
head 1.33602 -1.13569 -0.822662
rclavicle -6.01324e-015 5.96354e-015
rhumerus -51.7932 -0.909383 -62.8347
rradius 89.3372
rwrist -6.16231
rhand -4.95762 -28.4355
rfingers 7.12502
rthumb 20.8341 302.663
lclavicle -6.01324e-015 5.96354e-015
lhumerus -26.4955 -2.22501 52.6291
lradius 49.4096
lwrist 16.588
lhand -12.7309 8.70682
lfingers 7.12502
lthumb 13.3526 38.259
rfemur -93.2559 -16.6843 40.4193
rtibia 59.6325
rfoot -8.02828 0.948682
rtoes -58.6811
lfemur -8.21114 15.1463 -24.0079
ltibia 39.7944
lfoot -14.8364 -10.3307
ltoes 19.1031
965
root 2.97132 16.43 41.982 -15.7056 -0.674832 4.26862
lowerback 21.1453 0.573014 -6.84725
upperback 6.5164 -0.770736 -1.57604
thorax -4.6262 -0.383898 2.39024
lowerneck -7.08474 -1.50743 3.17937
upperneck 0.0555123 -2.25676 -0.675761
head 1.16333 -1.13493 -0.814685
rclavicle 5.46658e-015 1.19271e-015
rhumerus -51.9979 -2.77704 -61.9202
rradius 89.2731
rwrist -10.573
rhand -2.85876 -28.8517
rfingers 7.12502
rthumb 22.8495 302.482
lclavicle 5.46658e-015 1.19271e-015
lhumerus -25.8741 -3.56645 52.7456
lradius 51.0878
lwrist 17.0452
lhand -12.5925 8.57453
lfingers 7.12502
lthumb 13.486 38.1179
rfemur -95.2731 -16.4202 40.4374
rtibia 64.1388
rfoot -8.241 3.13546
rtoes -57.8207
lfemur -7.32469 14.6273 -24.3474
ltibia 39.5597
lfoot -15.2416 -9.48731
ltoes 17.336
966
root 2.93219 16.4224 42.0481 -15.9826 0.305622 4.21532
lowerback 21.4194 0.289554 -6.94357
upperback 6.624 -1.1705 -1.51254
thorax -4.60961 -0.581867 2.613
lowerneck -6.92119 -1.54272 3.02883
upperneck -0.394961 -2.28342 -0.737625
head 0.991969 -1.15381 -0.801733
rclavicle -3.35946e-014 -4.03533e-014
rhumerus -52.2738 -4.61451 -61.0402
rradius 89.1359
rwrist -14.4213
rhand -1.59848 -29.4144
rfingers 7.12502
rthumb 24.0585 302.074
lclavicle -3.35946e-014 -4.03533e-014
lhumerus -25.2637 -4.94289 52.9846
lradius 52.6913
lwrist 17.4599
lhand -12.3839 8.49561
lfingers 7.12502
lthumb 13.687 38.0255
rfemur -97.0441 -16.3074 39.9636
rtibia 68.8983
rfoot -7.62596 6.48175
rtoes -53.8337
lfemur -6.75545 14.1145 -24.3278
ltibia 39.6121
lfoot -15.7531 -8.9567
ltoes 15.6002
967
root 2.88966 16.4144 42.116 -16.0546 1.43356 3.81155
lowerback 21.5108 -0.0917592 -6.75725
upperback 6.65078 -1.61983 -1.35379
thorax -4.58712 -0.802457 2.78944
lowerneck -6.76413 -1.60834 2.8845
upperneck -0.715875 -2.35354 -0.758096
head 0.863223 -1.19186 -0.779644
rclavicle 8.24956e-015 -6.16232e-015
rhumerus -52.6376 -6.36597 -60.2517
rradius 88.9319
rwrist -17.5166
rhand -1.47136 -29.9578
rfingers 7.12502
rthumb 24.1803 301.546
lclavicle 8.24956e-015 -6.16232e-015
lhumerus -24.6479 -6.3726 53.3516
lradius 54.1875
lwrist 17.8214
lhand -12.1258 8.48581
lfingers 7.12502
lthumb 13.9358 37.9988
rfemur -98.6809 -16.4052 39.3468
rtibia 73.8052
rfoot -5.54179 10.2242
rtoes -43.1221
lfemur -6.54969 13.6671 -23.917
ltibia 39.9284
lfoot -16.3446 -8.62467
ltoes 13.9168
968
root 2.84394 16.4091 42.1828 -15.924 2.6784 3.09241
lowerback 21.4134 -0.557188 -6.31974
upperback 6.58672 -2.10981 -1.11399
thorax -4.57048 -1.04093 2.91703
lowerneck -6.67217 -1.69977 2.75093
upperneck -0.841906 -2.46267 -0.717747
head 0.807308 -1.24656 -0.744495
rclavicle -1.799e-014 1.51076e-014
rhumerus -53.0854 -7.98909 -59.6095
rradius 88.6671
rwrist -19.655
rhand -2.61293 -30.381
rfingers 7.12502
rthumb 23.0854 300.982
lclavicle -1.799e-014 1.51076e-014
lhumerus -24.0142 -7.86239 53.8357
lradius 55.5519
lwrist 18.1195
lhand -11.8355 8.52468
lfingers 7.12502
lthumb 14.2156 38.0182
rfemur -100.254 -16.7225 38.8223
rtibia 78.735
rfoot -2.88501 13.2899
rtoes -27.4324
lfemur -6.7089 13.3289 -23.1536
ltibia 40.4413
lfoot -16.9464 -8.26858
ltoes 12.3634
969
root 2.7953 16.4094 42.2453 -15.6081 4.00919 2.12463
lowerback 21.1387 -1.08351 -5.68873
upperback 6.42744 -2.62875 -0.814511
thorax -4.57243 -1.29166 2.99978
lowerneck -6.69995 -1.81582 2.64793
upperneck -0.729742 -2.61154 -0.630623
head 0.846502 -1.31855 -0.705455
rclavicle 8.34896e-015 2.52457e-014
rhumerus -53.6021 -9.46266 -59.1465
rradius 88.3478
rwrist -20.6771
rhand -4.9351 -30.6943
rfingers 7.12502
rthumb 20.8558 300.407
lclavicle 8.34896e-015 2.52457e-014
lhumerus -23.3849 -9.40933 54.4188
lradius 56.8107
lwrist 18.3518
lhand -11.5156 8.6098
lfingers 7.12502
lthumb 14.5237 38.0814
rfemur -101.789 -17.2352 38.5213
rtibia 83.5831
rfoot -0.744129 15.8881
rtoes -17.0382
lfemur -7.2008 13.1514 -22.1182
ltibia 41.0546
lfoot -17.4721 -7.61926
ltoes 10.8653
970
root 2.74419 16.4186 42.3005 -15.141 5.3919 0.991902
lowerback 20.7171 -1.64272 -4.93171
upperback 6.17555 -3.16252 -0.479966
thorax -4.60605 -1.54822 3.04448
lowerneck -6.81767 -1.94842 2.55448
upperneck -0.430659 -2.78735 -0.476095
head 0.960731 -1.40134 -0.651609
rclavicle -4.55962e-014 -1.80894e-014
rhumerus -54.1731 -10.7842 -58.8665
rradius 87.9751
rwrist -20.509
rhand -8.2507 -30.9264
rfingers 7.12502
rthumb 17.6676 299.856
lclavicle -4.55962e-014 -1.80894e-014
lhumerus -22.8034 -11.0109 55.0742
lradius 58.0144
lwrist 18.5139
lhand -11.1045 8.75488
lfingers 7.12502
lthumb 14.9198 38.1976
rfemur -103.268 -17.9102 38.4873
rtibia 88.2688
rfoot 0.77679 18.5081
rtoes -15.9815
lfemur -7.95501 13.1858 -20.9132
ltibia 41.6554
lfoot -17.8414 -6.46221
ltoes 9.26494
971
root 2.69092 16.4374 42.348 -14.5693 6.80186 -0.184187
lowerback 20.1815 -2.20139 -4.16818
upperback 5.85482 -3.69839 -0.137167
thorax -4.65806 -1.80595 3.08604
lowerneck -6.99988 -2.0901 2.46939
upperneck -0.0242277 -2.97974 -0.274668
head 1.12155 -1.49026 -0.587883
rclavicle -5.14355e-015 6.55989e-015
rhumerus -54.7681 -11.9716 -58.7446
rradius 87.5651
rwrist -19.1821
rhand -12.2131 -31.3308
rfingers 7.12502
rthumb 13.8516 299.15
lclavicle -5.14355e-015 6.55989e-015
lhumerus -22.3112 -12.6327 55.7789
lradius 59.2186
lwrist 18.5764
lhand -10.5607 8.92159
lfingers 7.12502
lthumb 15.4436 38.3246
rfemur -104.636 -18.7256 38.6498
rtibia 92.767
rfoot 1.86322 21.275
rtoes -19.7422
lfemur -8.8696 13.4506 -19.6776
ltibia 42.157
lfoot -17.9853 -4.70551
ltoes 7.6214
972
root 2.63583 16.4663 42.3877 -13.938 8.21727 -1.28801
lowerback 19.5818 -2.72998 -3.50169
upperback 5.48553 -4.22329 0.185814
thorax -4.72678 -2.05884 3.15098
lowerneck -7.21234 -2.23897 2.38947
upperneck 0.40892 -3.185 -0.0498801
head 1.29808 -1.58416 -0.519553
rclavicle 3.27995e-015 -2.84262e-014
rhumerus -55.3848 -13.0561 -58.7281
rradius 87.1497
rwrist -16.873
rhand -16.3976 -32.1952
rfingers 7.12502
rthumb 9.81661 298.054
lclavicle 3.27995e-015 -2.84262e-014
lhumerus -21.9493 -14.2589 56.5164
lradius 60.4689
lwrist 18.5145
lhand -9.84912 9.09624
lfingers 7.12502
lthumb 16.1289 38.4451
rfemur -105.843 -19.6826 38.9189
rtibia 97.0692
rfoot 3.06064 24.0938
rtoes -23.8957
lfemur -9.83694 13.9493 -18.5375
ltibia 42.5011
lfoot -17.8662 -2.42065
ltoes 6.13447
973
root 2.57912 16.501 42.4225 -13.2902 9.61638 -2.24246
lowerback 18.9646 -3.20428 -3.01001
upperback 5.0959 -4.72093 0.477473
thorax -4.79967 -2.29901 3.26879
lowerneck -7.41963 -2.39532 2.31054
upperneck 0.785814 -3.40105 0.168896
head 1.45745 -1.68335 -0.453353
rclavicle 1.4238e-014 -1.53064e-014
rhumerus -56.0245 -14.0762 -58.7499
rradius 86.777
rwrist -13.9353
rhand -20.4535 -33.7201
rfingers 7.12502
rthumb 5.90202 296.382
lclavicle 1.4238e-014 -1.53064e-014
lhumerus -21.7338 -15.8698 57.2855
lradius 61.7876
lwrist 18.3027
lhand -8.96615 9.23305
lfingers 7.12502
lthumb 16.979 38.511
rfemur -106.808 -20.7882 39.217
rtibia 101.211
rfoot 4.46317 26.5173
rtoes -27.8237
lfemur -10.7647 14.6842 -17.5625
ltibia 42.6727
lfoot -17.5137 0.180073
ltoes 5.02008
